Coordinates
version=1
nRows=32
nColumns=12
inDegrees=yes

Units are S.I. units (second, meters, Newtons, ...)
Angles are in degrees

endheader
time	SC_y	SC_z	SC_x	AC_y	AC_z	AC_x	GH_y	GH_z	GH_yy	EL_x	PS_y
       0.0              -11.23          30.18          57.17          64.24           7.99         -6.735          19.44          38.18          103.0          55.26          13.79
    0.0247              -11.24          30.17          57.17          64.24          7.989         -6.736          19.41          38.18          103.0          55.25           13.8
   0.04941              -11.24          30.17          57.17          64.24          7.988         -6.736          19.39          38.19          102.9          55.25          13.81
   0.07411              -11.25          30.16          57.18          64.24          7.986         -6.737          19.37           38.2          102.9          55.24          13.82
   0.09882              -11.26          30.16          57.18          64.24          7.985         -6.738          19.34          38.21          102.9          55.23          13.83
    0.1235              -11.27          30.15          57.18          64.24          7.983         -6.739          19.31          38.22          102.9          55.23          13.85
    0.1482              -11.28          30.14          57.18          64.24          7.981          -6.74          19.28          38.23          102.9          55.22          13.86
    0.1729              -11.29          30.14          57.19          64.24           7.98         -6.741          19.25          38.23          102.9          55.21          13.88
    0.1976               -11.3          30.13          57.19          64.25          7.978         -6.742          19.21          38.25          102.9           55.2          13.89
    0.2223              -11.31          30.12          57.19          64.25          7.975         -6.743          19.18          38.26          102.9          55.19          13.91
     0.247              -11.32          30.11           57.2          64.25          7.973         -6.744          19.14          38.27          102.8          55.18          13.93
    0.2717              -11.33          30.11           57.2          64.25          7.971         -6.746          19.09          38.28          102.8          55.17          13.95
    0.2965              -11.35           30.1          57.21          64.25          7.968         -6.747          19.05           38.3          102.8          55.16          13.98
    0.3212              -11.36          30.09          57.21          64.25          7.965         -6.749           19.0          38.31          102.8          55.15           14.0
    0.3459              -11.38          30.07          57.22          64.25          7.962          -6.75          18.95          38.33          102.8          55.14          14.03
    0.3706              -11.39          30.06          57.22          64.25          7.959         -6.752          18.89          38.35          102.7          55.12          14.06
    0.3953              -11.41          30.05          57.23          64.25          7.955         -6.754          18.82          38.37          102.7          55.11          14.09
      0.42              -11.43          30.03          57.23          64.25          7.951         -6.756          18.76          38.39          102.7          55.09          14.12
    0.4447              -11.46          30.02          57.24          64.25          7.946         -6.759          18.68          38.41          102.6          55.07          14.16
    0.4694              -11.48           30.0          57.25          64.25          7.942         -6.761           18.6          38.44          102.6          55.05           14.2
    0.4941              -11.51          29.98          57.26          64.26          7.936         -6.764          18.51          38.46          102.6          55.03          14.24
    0.5188              -11.54          29.96          57.27          64.26          7.931         -6.767          18.41          38.49          102.5          55.01          14.29
    0.5435              -11.57          29.94          57.28          64.26          7.924         -6.771           18.3          38.53          102.5          54.98          14.35
    0.5682              -11.61          29.91          57.29          64.26          7.917         -6.775          18.18          38.56          102.4          54.95          14.41
    0.5929              -11.65          29.89           57.3          64.26          7.909         -6.779          18.04          38.61          102.4          54.92          14.47
    0.6176               -11.7          29.85          57.32          64.26            7.9         -6.784          17.89          38.65          102.3          54.88          14.55
    0.6423              -11.75          29.82          57.33          64.27           7.89         -6.789          17.72          38.71          102.2          54.84          14.63
     0.667              -11.81          29.78          57.35          64.27          7.879         -6.795          17.53          38.76          102.1          54.79          14.73
    0.6917              -11.87          29.73          57.37          64.27          7.867         -6.802          17.31          38.83          102.0          54.74          14.83
    0.7164              -11.94          29.68           57.4          64.28          7.852         -6.809          17.07          38.91          101.9          54.68          14.95
    0.7411              -12.03          29.62          57.42          64.28          7.836         -6.818          16.79          38.99          101.8          54.61          15.09
    0.7658              -12.13          29.56          57.45          64.29          7.817         -6.828          16.47          39.09          101.7          54.53          15.25
